<svg width="65" height="19" fill="none" xmlns="http://www.w3.org/2000/svg"><g clip-path="url(#clip0)"><path d="M9.677 6.246c1.865.254 3.192 1.185 3.898 2.724 1.159 2.538.487 6.311-.874 8.73l.403.254c.05.034.42.186.42.186s.118-.22.219-.44c-.05.119-.084.204-.118.271.118-.22.218-.44.32-.66 0-.017.016-.017.016-.017 1.16-2.605 1.613-6.175.47-8.696-.84-1.844-2.436-2.96-4.62-3.265-2.873-.39-4.821-2.318-5.796-3.57a17.978 17.978 0 011.596 2.86 9.362 9.362 0 004.066 1.623z" fill="#40529C"/><path d="M5.847 9.206V9.14c-.084 0-.487.017-.756.017-1.428 0-2.503-.254-3.192-.779a2.12 2.12 0 01-.655-.744c-.033-.068-.067-.135-.1-.22-.471-1.15-.034-2.64.403-3.688.386-.914.84-1.641 1.192-2.115.017-.017.47-.558.723-.694.504-.27.773.288.689.981 0 0 .15-.203.201-.372C4.621.476 3.781-.64 2.555.442 1.597 1.255-.79 5.23.27 7.785c.134.305.302.592.504.846.218.254.47.474.756.66.84.541 2.033.812 3.561.812.286 0 .756-.017.857-.017a8.312 8.312 0 01-.1-.88z" fill="#EB585E"/><path d="M2.722 1.627c.52 1.083.856 2.657-1.059 5.313-.168.22-.302.457-.437.694.152.287.37.541.656.744.15-.304.336-.592.537-.897 1.109-1.54 1.529-2.808 1.613-3.84-.235-.423-.487-.812-.706-1.15l-.604-.864zM11.357 17.937c-1.898-.017-3.73-.389-5.292-1.082-1.798-.813-3.226-2.03-4.015-3.469-.756-1.336-.924-2.758-.521-4.111a3.18 3.18 0 01-.756-.66c-.622 1.709-.47 3.553.47 5.228C2.15 15.45 3.73 16.82 5.695 17.7c1.714.762 3.696 1.185 5.763 1.185.42 0 .873-.017 1.293-.051a49.152 49.152 0 00-1.394-.897z" fill="#F7BD4D"/><path d="M6.871 10.036c2.436.05 3.108 2.284 3.83 4.653.219.71.437 1.455.723 2.149.454.338.907.626 1.277.863l.403.253c.017 0 .017.017.05.017-.739-.829-1.142-2.165-1.562-3.57-.756-2.504-1.613-5.33-4.822-5.312v.034c.017.321.05.626.101.913z" fill="#EB585E"/><path d="M14.18 17.92c-.018-.237-.118-.423-.22-.643 0 0 0 .017-.016.017.084.186-.42.83-.42.83s-.252-.102-.37-.153c-.016-.017-.033-.017-.05-.017-.117-.084-.252-.152-.403-.254a16.993 16.993 0 01-1.277-.863c-1.831-1.336-3.998-3.45-4.553-6.8a7.698 7.698 0 01-.1-.898v-.033c-.118-1.71-.589-3.215-1.16-4.5-.504-1.151-1.092-2.099-1.596-2.86a10.268 10.268 0 01-.554-.812s-.219.101-.538.457c-.033.033-.067.084-.1.118-.017.017-.034.034-.034.05-.017.018-.034.051-.05.068l.604.863c.219.339.47.728.706 1.15.823 1.422 1.63 3.266 1.797 5.482h.017l.101.931h-.017c.605 4.077 3.36 6.463 5.427 7.884.47.322.89.575 1.26.812.033.017.084.051.134.085.168.085.386.17.622.17.218 0 .47-.085.604-.255.168-.236.202-.558.185-.829z" fill="#F3909D"/><path d="M13.524 18.14s.991.491.437-.846c-.034.051-.134.237-.218.406-.185.339-.219.44-.219.44z" fill="#BC7580"/><path d="M3.444.934s.118.186.252.372c.151.22.252.355.269.39.05.067.168.202.168.202.285-1.506-.689-.964-.689-.964z" fill="#BF4C55"/><path d="M26.55 11.785c.208.105.33.28.381.506a.689.689 0 01-.208.611 3.47 3.47 0 01-.814.61c-.59.35-1.248.507-1.958.507a4.049 4.049 0 01-1.543-.297 3.515 3.515 0 01-1.247-.872 3.777 3.777 0 01-.866-1.257c-.208-.47-.295-.994-.295-1.553 0-.576.104-1.099.295-1.57.207-.506.502-.925.866-1.257a3.471 3.471 0 011.247-.855 3.87 3.87 0 011.543-.314c.71 0 1.369.175 1.958.506.312.175.589.384.831.611a.674.674 0 01.208.61.68.68 0 01-.364.524.72.72 0 01-.415.088.772.772 0 01-.399-.192 2.35 2.35 0 00-.589-.437c-.364-.209-.762-.296-1.23-.296-.364 0-.693.07-.988.21a2.496 2.496 0 00-.832.558 2.367 2.367 0 00-.554.82 2.483 2.483 0 00-.208 1.03c0 .366.07.697.208.994.121.296.294.576.554.838.26.261.538.436.832.558.277.14.607.21.988.21.45 0 .866-.105 1.23-.297.208-.105.398-.245.572-.437a.724.724 0 01.381-.192c.139-.07.277-.034.416.035zM35.56 6.9v3.175c0 .541-.086 1.065-.242 1.536-.087.244-.191.471-.295.68-.104.21-.242.42-.381.594a3.449 3.449 0 01-1.092.855c-.433.21-.918.296-1.455.296-.278 0-.537-.034-.78-.087a2.8 2.8 0 01-.676-.227 2.898 2.898 0 01-1.074-.855 4.46 4.46 0 01-.693-1.274 4.998 4.998 0 01-.243-1.535V6.899c0-.192.07-.349.208-.488a.653.653 0 01.485-.21c.19 0 .347.07.485.21.14.14.208.296.208.488v3.141c0 .332.035.663.122 1.012.069.315.208.594.38.838.157.244.382.436.66.558.242.14.554.21.918.21h.017c.347 0 .658-.07.918-.21.243-.122.468-.296.659-.558.156-.244.277-.524.381-.838.087-.349.121-.68.121-1.012V6.9a.72.72 0 01.19-.49.664.664 0 01.503-.209c.208 0 .364.07.468.21a.636.636 0 01.208.488zM38.333 6.184a.703.703 0 00-.52.21.754.754 0 00-.208.54v6.177c0 .21.07.384.208.541.139.14.312.21.52.21.208 0 .38-.07.537-.21a.754.754 0 00.208-.54V6.933c0-.21-.07-.384-.208-.54a.715.715 0 00-.537-.21zm.831-2.13a.834.834 0 01-.242.594.783.783 0 01-.572.245.834.834 0 01-.832-.838c0-.227.087-.419.243-.576a.793.793 0 01.589-.244c.225 0 .416.087.572.244a.732.732 0 01.242.576zM47.083 11.28c.208-.402.312-.803.312-1.24a2.68 2.68 0 00-.312-1.239 2.344 2.344 0 00-.936-.994 2.516 2.516 0 00-1.334-.367c-.364 0-.693.07-1.005.21-.156.07-.312.14-.45.226a2.15 2.15 0 00-.382.315 2.608 2.608 0 00-.554.837c-.121.314-.19.663-.19 1.012 0 .367.069.716.19 1.012.156.332.329.611.554.838.122.122.243.227.382.314.138.087.294.175.45.227.312.14.641.21 1.005.21.502 0 .953-.123 1.334-.367.399-.262.728-.576.936-.995zm-.017-7.853c0-.157.034-.28.12-.402a.951.951 0 01.313-.279.982.982 0 01.381-.07c.121.018.225.053.33.105.103.07.19.157.242.262.07.105.104.227.104.366v9.703c0 .209-.07.383-.208.54a.703.703 0 01-.52.21c-.156 0-.26-.018-.347-.07a.695.695 0 01-.208-.174c-.086-.105-.19-.175-.329-.175a.59.59 0 00-.38.087c-.07.053-.157.105-.226.14-.07.035-.156.07-.243.122a3.36 3.36 0 01-1.282.244 4.016 4.016 0 01-1.56-.314c-.45-.174-.866-.47-1.247-.855a4.015 4.015 0 01-.85-1.274 3.944 3.944 0 01-.311-1.553c0-.54.104-1.064.312-1.553.208-.488.485-.907.849-1.256.173-.175.381-.35.572-.471.208-.14.433-.262.675-.384a4.016 4.016 0 011.56-.314h1.525a.713.713 0 00.728-.733V3.427zM54.326 12.623c.503 0 .953-.122 1.352-.367.398-.226.71-.558.935-.977.208-.366.295-.785.295-1.239a2.72 2.72 0 00-.295-1.239 2.534 2.534 0 00-2.287-1.361c-.364 0-.693.07-1.005.21-.156.07-.312.14-.45.226a2.15 2.15 0 00-.382.315 3.697 3.697 0 00-.554.837 2.84 2.84 0 00-.19 1.012c0 .367.069.716.19 1.012.139.297.33.576.554.838.26.227.52.419.832.558a3.2 3.2 0 001.005.175zm3.743.035c0 .349-.122.628-.347.872-.225.227-.52.35-.849.35h-.086a1.11 1.11 0 01-.347-.053c-.104-.035-.243-.052-.398-.087a.902.902 0 00-.434.052 3.233 3.233 0 01-1.282.244 4.206 4.206 0 01-1.56-.296 3.851 3.851 0 01-1.247-.873 4.586 4.586 0 01-.85-1.256 4.095 4.095 0 01-.311-1.57c0-.542.104-1.065.312-1.554.208-.488.485-.907.849-1.256a3.8 3.8 0 011.248-.855 4.016 4.016 0 011.56-.314c.519 0 1.004.104 1.455.296.45.192.849.471 1.195.803.347.349.607.733.797 1.204.19.454.295.942.295 1.466v2.827zM64.74 10.668c.139.245.225.524.26.838.017.297-.017.593-.121.855-.104.28-.243.524-.434.733a2.88 2.88 0 01-.658.559c-.243.156-.52.244-.797.296a3.89 3.89 0 01-1.49.018 2.523 2.523 0 01-.71-.192 1.306 1.306 0 01-.313-.157.817.817 0 01-.26-.227.649.649 0 01-.12-.332.618.618 0 01.051-.349.839.839 0 01.208-.279.535.535 0 01.33-.157c.155-.017.294 0 .432.035.14.052.278.087.416.122a2 2 0 01.312.07c.104.017.208.035.33.052.277.018.537-.035.78-.174.242-.14.38-.367.38-.68 0-.298-.103-.542-.329-.699a1.207 1.207 0 00-.364-.192 1.535 1.535 0 00-.38-.052 2.56 2.56 0 01-.815-.122 2.803 2.803 0 01-.728-.35 2.558 2.558 0 01-.59-.558 2.014 2.014 0 01-.363-.75 1.97 1.97 0 01-.07-.838c.035-.279.122-.54.26-.768.122-.244.295-.453.503-.645a2.65 2.65 0 01.693-.454c.243-.122.485-.192.728-.21.242-.017.502-.034.745-.017.156.018.295.018.45.035.14.018.295.052.451.087.121.035.26.07.381.123.139.052.26.122.382.209.207.157.311.349.311.593a.687.687 0 01-.311.594.665.665 0 01-.347.104c-.121 0-.243 0-.364-.035s-.243-.052-.364-.104a2.749 2.749 0 00-.364-.088c-.225-.035-.45-.035-.675-.035a.81.81 0 00-.59.297.93.93 0 00-.208.384.789.789 0 000 .401c.035.14.087.262.191.367.087.105.208.192.347.262.12.052.277.087.467.104a.42.42 0 00.208 0h.208c.278.035.537.105.78.227.243.122.468.262.676.454.173.192.346.401.485.646z" fill="#EB585E"/></g><defs><clipPath id="clip0"><path fill="#fff" d="M0 0h65v19H0z"/></clipPath></defs></svg>